<svg width="260" height="260" fill="none" xmlns="http://www.w3.org/2000/svg"><g clip-path="url(#clip0)"><mask id="a" style="mask-type:alpha" maskUnits="userSpaceOnUse" x="-8" y="0" width="280" height="260"><path fill="#C4C4C4" d="M-8 0h280v260H-8z"/></mask><g mask="url(#a)"><path fill-rule="evenodd" clip-rule="evenodd" d="M520.305 74.964a5.16 5.16 0 011.559-3.687 5.377 5.377 0 013.763-1.527h203.212c21.011.104 41.126 8.352 55.951 22.94 14.824 14.589 23.152 34.334 23.165 54.92v92.764a5.212 5.212 0 01-1.555 3.704 5.43 5.43 0 01-3.766 1.558h-35.14a5.428 5.428 0 01-3.766-1.558 5.209 5.209 0 01-1.556-3.704v-94.633a41.748 41.748 0 00-3.306-16.274 42.44 42.44 0 00-9.415-13.792 43.452 43.452 0 00-14.089-9.209 44.153 44.153 0 00-16.613-3.221h-31.777v137.129a5.124 5.124 0 01-.391 2.01 5.194 5.194 0 01-1.15 1.708 5.337 5.337 0 01-1.733 1.143 5.415 5.415 0 01-2.048.401h-35.14a5.426 5.426 0 01-3.798-1.541 5.208 5.208 0 01-1.574-3.721v-137.03h-75.301v137.03a5.123 5.123 0 01-.39 2.01 5.21 5.21 0 01-1.15 1.708 5.337 5.337 0 01-1.733 1.143 5.419 5.419 0 01-2.048.401h-35.14a5.419 5.419 0 01-2.048-.401 5.337 5.337 0 01-1.733-1.143 5.194 5.194 0 01-1.15-1.708 5.142 5.142 0 01-.391-2.01l.251-165.41zm466.114 63.941H879.24c-29.267 0-45.733 22.821-45.733 47.463v12.542c.04 12.455 5.111 24.387 14.104 33.189 8.993 8.802 21.177 13.757 33.888 13.783h145.581a5.438 5.438 0 003.77-1.558 5.232 5.232 0 001.55-3.704v-93.01c0-47.857-31.07-77.86-79.566-77.86H845.957c-1.411 0-2.765.55-3.762 1.527a5.161 5.161 0 00-1.559 3.687V98.13c0 1.383.561 2.709 1.559 3.687a5.378 5.378 0 003.762 1.527h97.741c27.912 0 41.164 13.427 42.972 35.315l-.251.246zm.702 74.958h-90.06a21.343 21.343 0 01-8.023-1.724 21 21 0 01-6.734-4.61 20.49 20.49 0 01-4.411-6.789c-1-2.526-1.48-5.22-1.414-7.928v-5.362a19.314 19.314 0 011.145-8.07 19.618 19.618 0 014.385-6.924 20.104 20.104 0 016.872-4.589 20.459 20.459 0 018.18-1.468h89.81l.25 47.464zM373.017 69.75h30.12c51.606 0 94.126 29.118 94.126 87.747 0 54.989-36.998 88.139-94.126 88.139h-30.12c-56.727 0-94.327-33.15-94.327-88.139 0-58.63 42.971-87.747 94.176-87.747h.151zm9.889 33.594h10.743c36.596 0 58.534 17.903 58.534 54.103 0 33.987-18.725 54.547-58.534 54.547h-10.592c-40.161 0-58.534-20.56-58.534-54.547 0-36.249 21.486-54.103 58.534-54.103h-.151zM2.586 18.154a5.21 5.21 0 011.573-3.672 5.427 5.427 0 013.748-1.54h144.628c57.129 0 103.765 31.773 103.765 103.829v25.035c0 67.581-46.636 103.83-103.765 103.83H7.907a5.429 5.429 0 01-3.766-1.558 5.21 5.21 0 01-1.555-3.704V18.154zm47.54 30.151h98.042c39.759 0 58.986 22.38 58.986 72.499v17.412c0 46.529-19.227 72.056-58.986 72.056H50.126V48.305zM1314.18 12.941c6.88.064 13.46 2.767 18.33 7.53 4.87 4.763 7.64 11.206 7.72 17.948a25.208 25.208 0 01-4.36 14.196c-2.86 4.204-6.93 7.483-11.69 9.423-4.76 1.94-10 2.452-15.05 1.473a26.24 26.24 0 01-13.36-6.975 25.361 25.361 0 01-7.14-13.07 25.045 25.045 0 011.47-14.755c1.97-4.667 5.31-8.657 9.6-11.464a26.412 26.412 0 0114.48-4.306zm22.84 74.122v153.311a5.14 5.14 0 01-1.54 3.718 5.367 5.367 0 01-3.78 1.544h-35.14c-1.43 0-2.79-.554-3.8-1.541a5.196 5.196 0 01-1.57-3.721V87.064c0-.7.14-1.393.42-2.038a5.16 5.16 0 011.19-1.72 5.394 5.394 0 013.86-1.505h35.14c1.41 0 2.76.549 3.76 1.526 1 .978 1.56 2.304 1.56 3.687l-.1.05zm-275.2-12.1c0-1.382.56-2.708 1.56-3.686 1-.978 2.35-1.527 3.76-1.527h115.76c21.09.052 41.3 8.263 56.23 22.847 14.93 14.583 23.37 34.357 23.49 55.013v92.764c0 1.387-.56 2.718-1.55 3.704a5.438 5.438 0 01-3.77 1.558h-35.14a5.414 5.414 0 01-3.76-1.558 5.2 5.2 0 01-1.56-3.704v-94.633c-.04-11.258-4.62-22.045-12.75-30.006-8.12-7.961-19.13-12.451-30.62-12.49h-65.92v137.129c.01.688-.12 1.372-.39 2.01a5.06 5.06 0 01-1.15 1.708c-.49.489-1.08.878-1.73 1.143-.65.265-1.35.401-2.05.401h-35.14a5.398 5.398 0 01-3.75-1.561 5.159 5.159 0 01-1.13-1.702 4.918 4.918 0 01-.39-1.999V74.964z" fill="#212223"/></g></g><defs><clipPath id="clip0"><path fill="#fff" d="M0 0h260v260H0z"/></clipPath></defs></svg>