<svg width="100" height="18" viewBox="0 0 100 18" fill="none" xmlns="http://www.w3.org/2000/svg">
<path fill-rule="evenodd" clip-rule="evenodd" d="M38.7037 4.73246C38.7037 4.62695 38.7457 4.52577 38.8203 4.45116C38.8949 4.37656 38.996 4.33465 39.1016 4.33465H54.2933C55.8641 4.34258 57.3678 4.97188 58.4761 6.08504C59.5843 7.19821 60.2069 8.70477 60.2079 10.2755V17.3536C60.2079 17.4595 60.1661 17.561 60.0916 17.6362C60.0171 17.7114 59.9159 17.7542 59.8101 17.7552H57.1831C57.0772 17.7542 56.976 17.7114 56.9015 17.6362C56.827 17.561 56.7852 17.4595 56.7853 17.3536V10.1329C56.7853 9.70681 56.7013 9.28485 56.5381 8.8912C56.3749 8.49756 56.1357 8.13994 55.8342 7.83879C55.5327 7.53764 55.1748 7.29888 54.781 7.13614C54.3872 6.97341 53.9651 6.88991 53.539 6.8904H51.1634V17.3536C51.1639 17.4062 51.154 17.4583 51.1342 17.507C51.1144 17.5557 51.0852 17.6 51.0482 17.6373C51.0112 17.6747 50.9672 17.7043 50.9187 17.7245C50.8702 17.7448 50.8181 17.7552 50.7656 17.7552H48.1386C48.0321 17.7552 47.9299 17.7129 47.8546 17.6375C47.7793 17.5622 47.737 17.4601 47.737 17.3536V6.8979H42.1076V17.3536C42.1081 17.4062 42.0982 17.4583 42.0784 17.507C42.0587 17.5557 42.0294 17.6 41.9924 17.6373C41.9555 17.6747 41.9114 17.7043 41.8629 17.7245C41.8144 17.7448 41.7624 17.7552 41.7098 17.7552H39.0828C39.0302 17.7552 38.9782 17.7448 38.9297 17.7245C38.8812 17.7043 38.8371 17.6747 38.8002 17.6373C38.7632 17.6 38.7339 17.5557 38.7142 17.507C38.6944 17.4583 38.6845 17.4062 38.685 17.3536L38.7037 4.73246ZM73.5495 9.61128H65.537C63.3491 9.61128 62.1181 11.3526 62.1181 13.2329V14.1899C62.1211 15.1402 62.5002 16.0506 63.1725 16.7222C63.8448 17.3938 64.7556 17.7719 65.7059 17.7739H76.5893C76.6952 17.7729 76.7964 17.7302 76.8709 17.655C76.9454 17.5798 76.9872 17.4782 76.9872 17.3724V10.2755C76.9872 6.62394 74.6641 4.33465 71.0388 4.33465H63.0489C62.9434 4.33465 62.8422 4.37656 62.7676 4.45116C62.693 4.52577 62.6511 4.62695 62.6511 4.73246V6.50009C62.6511 6.6056 62.693 6.70678 62.7676 6.78139C62.8422 6.85599 62.9434 6.8979 63.0489 6.8979H70.3558C72.4424 6.8979 73.4332 7.92246 73.5683 9.59251L73.5495 9.61128ZM73.602 15.3308H66.8693C66.6627 15.3269 66.4588 15.2822 66.2695 15.1992C66.0801 15.1163 65.9091 14.9968 65.7661 14.8475C65.6231 14.6982 65.511 14.5222 65.4363 14.3295C65.3615 14.1367 65.3256 13.9311 65.3306 13.7245V13.3154C65.3159 13.1064 65.345 12.8967 65.4162 12.6996C65.4874 12.5026 65.5991 12.3226 65.744 12.1713C65.889 12.02 66.064 11.9008 66.2578 11.8212C66.4516 11.7416 66.6599 11.7034 66.8693 11.7092H73.5833L73.602 15.3308ZM27.6927 4.33465H29.9445C33.8024 4.33465 36.9812 6.55639 36.9812 11.0299C36.9812 15.2257 34.2153 17.7552 29.9445 17.7552H27.6927C23.4519 17.7552 20.641 15.2257 20.641 11.0299C20.641 6.55639 23.8535 4.33465 27.6815 4.33465H27.6927ZM28.432 6.8979H29.2352C31.971 6.8979 33.611 8.26397 33.611 11.0261C33.611 13.6194 32.2112 15.1881 29.2352 15.1881H28.4433C25.441 15.1881 24.0674 13.6194 24.0674 11.0261C24.0674 8.26022 25.6736 6.8979 28.4433 6.8979H28.432ZM3.83495e-10 0.397812C0.000978689 0.292609 0.0432047 0.191991 0.117597 0.117598C0.19199 0.0432051 0.292606 0.000978697 0.397808 0L11.2099 0C15.4807 0 18.9672 2.4244 18.9672 7.92246V9.8327C18.9672 14.9892 15.4807 17.7552 11.2099 17.7552H0.397808C0.291959 17.7542 0.190782 17.7114 0.116285 17.6362C0.041787 17.561 -4.62255e-06 17.4595 3.83495e-10 17.3536L3.83495e-10 0.397812ZM3.554 2.69836H10.8834C13.8557 2.69836 15.2931 4.40595 15.2931 8.2302V9.55874C15.2931 13.109 13.8557 15.0568 10.8834 15.0568H3.554V2.69836ZM98.0522 0C98.5666 0.00487539 99.0587 0.21114 99.4228 0.574558C99.7869 0.937976 99.9941 1.42961 100 1.94402C100.001 2.32942 99.8871 2.70637 99.6736 3.02717C99.46 3.34797 99.1561 3.59821 98.8002 3.74621C98.4444 3.89421 98.0526 3.93331 97.6745 3.85858C97.2965 3.78385 96.9491 3.59864 96.6763 3.32639C96.4035 3.05414 96.2176 2.70708 96.1422 2.32915C96.0667 1.95122 96.1051 1.55939 96.2524 1.20326C96.3997 0.847136 96.6493 0.542713 96.9697 0.328522C97.2901 0.114331 97.6668 7.15385e-07 98.0522 0V0ZM99.7598 5.65568V17.3536C99.7603 17.4062 99.7504 17.4583 99.7306 17.507C99.7108 17.5557 99.6816 17.6 99.6446 17.6373C99.6076 17.6747 99.5636 17.7043 99.5151 17.7245C99.4666 17.7448 99.4146 17.7552 99.362 17.7552H96.735C96.6285 17.7552 96.5263 17.7129 96.451 17.6375C96.3757 17.5622 96.3334 17.4601 96.3334 17.3536V5.65568C96.3334 5.60231 96.344 5.54947 96.3647 5.50026C96.3853 5.45104 96.4156 5.40643 96.4537 5.36905C96.4917 5.33166 96.5369 5.30224 96.5865 5.2825C96.6361 5.26277 96.6891 5.25312 96.7425 5.25412H99.3695C99.475 5.25412 99.5762 5.29603 99.6508 5.37063C99.7254 5.44524 99.7673 5.54642 99.7673 5.65193L99.7598 5.65568ZM79.1864 4.73246C79.1864 4.62695 79.2283 4.52577 79.3029 4.45116C79.3775 4.37656 79.4787 4.33465 79.5842 4.33465H88.2384C89.8145 4.33858 91.3252 4.96517 92.4415 6.07791C93.5577 7.19066 94.1891 8.69942 94.198 10.2755V17.3536C94.198 17.4595 94.1562 17.561 94.0817 17.6362C94.0072 17.7114 93.906 17.7542 93.8002 17.7552H91.1731C91.0673 17.7542 90.9661 17.7114 90.8916 17.6362C90.8171 17.561 90.7753 17.4595 90.7753 17.3536V10.1329C90.7724 9.27388 90.4298 8.45085 89.8223 7.84339C89.2149 7.23594 88.3919 6.89337 87.5328 6.8904H82.6053V17.3536C82.6058 17.4062 82.5958 17.4583 82.5761 17.507C82.5563 17.5557 82.5271 17.6 82.4901 17.6373C82.4531 17.6747 82.4091 17.7043 82.3606 17.7245C82.312 17.7448 82.26 17.7552 82.2075 17.7552H79.5804C79.5282 17.7547 79.4765 17.7439 79.4285 17.7234C79.3804 17.703 79.3368 17.6733 79.3002 17.636C79.2636 17.5987 79.2347 17.5546 79.2152 17.5061C79.1957 17.4577 79.1859 17.4058 79.1864 17.3536V4.73246Z" fill="white"/>
</svg>
