<svg width="100" height="18" fill="none" xmlns="http://www.w3.org/2000/svg"><path fill-rule="evenodd" clip-rule="evenodd" d="M38.704 4.732a.398.398 0 01.398-.397h15.191a5.945 5.945 0 015.915 5.94v7.079a.401.401 0 01-.398.401h-2.627a.402.402 0 01-.398-.401v-7.221A3.242 3.242 0 0053.54 6.89h-2.376v10.464a.397.397 0 01-.397.401H48.14a.401.401 0 01-.402-.401V6.898h-5.63v10.456a.397.397 0 01-.397.401h-2.627a.396.396 0 01-.398-.401l.019-12.622zm34.845 4.88h-8.012c-2.188 0-3.419 1.74-3.419 3.62v.958a3.595 3.595 0 003.588 3.584h10.883a.402.402 0 00.398-.402v-7.097c0-3.651-2.323-5.94-5.948-5.94h-7.99a.398.398 0 00-.398.397V6.5a.398.398 0 00.398.398h7.307c2.086 0 3.077 1.024 3.212 2.695l-.019.018zm.053 5.719h-6.733a1.568 1.568 0 01-1.538-1.606v-.41a1.502 1.502 0 011.538-1.606h6.714l.019 3.622zM27.692 4.335h2.253c3.857 0 7.036 2.221 7.036 6.695 0 4.196-2.766 6.725-7.037 6.725h-2.251c-4.241 0-7.052-2.53-7.052-6.725 0-4.474 3.213-6.695 7.04-6.695h.012zm.74 2.563h.803c2.736 0 4.376 1.366 4.376 4.128 0 2.593-1.4 4.162-4.376 4.162h-.792c-3.002 0-4.376-1.569-4.376-4.162 0-2.766 1.607-4.128 4.376-4.128h-.011zM0 .398A.402.402 0 01.398 0H11.21c4.27 0 7.757 2.424 7.757 7.922v1.91c0 5.157-3.486 7.923-7.757 7.923H.398A.402.402 0 010 17.354V.398zm3.554 2.3h7.33c2.972 0 4.41 1.708 4.41 5.532v1.33c0 3.55-1.438 5.498-4.41 5.498h-7.33V2.698zM98.052 0A1.967 1.967 0 01100 1.944a1.946 1.946 0 01-3.324 1.382A1.947 1.947 0 0198.052 0zm1.708 5.656v11.698a.397.397 0 01-.398.401h-2.627a.401.401 0 01-.402-.401V5.656a.4.4 0 01.41-.402h2.627a.398.398 0 01.397.398l-.007.004zm-20.574-.924a.398.398 0 01.398-.397h8.654a5.975 5.975 0 015.96 5.94v7.079a.401.401 0 01-.398.401h-2.627a.402.402 0 01-.398-.401v-7.221a3.253 3.253 0 00-3.242-3.243h-4.928v10.464a.399.399 0 01-.398.401H79.58a.397.397 0 01-.394-.401V4.732z" fill="#fff"/></svg>